# xmcd
#
# Track frame offsets: 
#        150
#        10192
#        22554
#        32208
#        44327
#        56512
#        73712
#        85094
#        97494
#        108104
#        124186
#        137462
#        148496
#        158862
#        169877
#
# Disc length: 2492 seconds
#
# Revision: 4
# Processed by: cddbd v1.5.2PL0 Copyright (c) Steve Scherf et al.
# Submitted via: ExactAudioCopyFreeDBPlugin 1.0
#
DISCID=ca09ba0f
DTITLE=Various Artist - Country Jukebox: You Are The One [CD1]
DYEAR=2007
DGENRE=Country
TTITLE0=Carl Smith with the Tunesmiths - You Are the One
TTITLE1=The Browns - I Take the Chance
TTITLE2=Marty Robbins - Just Married
TTITLE3=George Jones - Once You've Had the Best
TTITLE4=Eddy Arnold - I Want to Go with You
TTITLE5=Charley Pride - (I’m So) Afraid of Losing You Again
TTITLE6=Tammy Wynette - Good Lovin’ (Makes It Right)
TTITLE7=Barbara Mandrell - The Midnight Oil
TTITLE8=Willie Nelson - Blue Eyes Crying in the Rain
TTITLE9=Dolly Parton - Heartbreaker
TTITLE10=Johnny Paycheck - She's All I Got
TTITLE11=Charlie Rich - There Won't Be Anymore
TTITLE12=David Houston - You Mean the World to Me
TTITLE13=Jim Reeves - I Guess I'm Crazy
TTITLE14=Ray Price - You're the Best Thing That Ever Happened to Me
EXTD=YEAR: 2006
EXTT0=
EXTT1=
EXTT2=
EXTT3=
EXTT4=
EXTT5=
EXTT6=
EXTT7=
EXTT8=
EXTT9=
EXTT10=
EXTT11=
EXTT12=
EXTT13=
EXTT14=
PLAYORDER=
